<?xml version="1.0" standalone="no"?>
<!DOCTYPE svg PUBLIC "-//W3C//DTD SVG 20010904//EN"
 "http://www.w3.org/TR/2001/REC-SVG-20010904/DTD/svg10.dtd">
<svg version="1.0" xmlns="http://www.w3.org/2000/svg"
 width="700.000000pt" height="700.000000pt" viewBox="0 0 700.000000 700.000000"
 preserveAspectRatio="xMidYMid meet">
<metadata>
Created by potrace 1.14, written by Peter Selinger 2001-2017
</metadata>
<g transform="translate(0.000000,700.000000) scale(0.100000,-0.100000)"
fill="#000000" stroke="none">
<path d="M2457 5191 c-13 -14 -183 -252 -575 -806 -451 -636 -658 -1029 -718
-1360 -1 -11 -6 -33 -9 -50 -11 -61 -6 -282 9 -360 37 -203 119 -365 262 -518
154 -165 340 -267 569 -312 70 -14 288 -17 382 -5 512 64 905 456 959 956 38
357 -69 666 -308 890 -162 152 -371 240 -588 248 -48 2 -74 7 -73 14 2 6 141
203 309 439 169 235 322 449 340 475 25 34 30 49 21 56 -7 5 -124 85 -261 177
-251 170 -291 189 -319 156z m-87 -1972 c101 -33 186 -106 228 -197 24 -51 27
-69 27 -162 -1 -97 -3 -110 -33 -171 -77 -159 -214 -242 -390 -235 -280 11
-445 285 -327 544 31 67 123 158 195 194 86 43 214 54 300 27z"/>
<path d="M5133 5130 c-32 -41 -63 -82 -70 -90 -13 -16 -194 -248 -241 -310
-15 -19 -65 -84 -113 -145 -47 -60 -164 -211 -259 -335 -207 -268 -316 -409
-335 -431 -7 -9 -41 -54 -76 -99 -35 -46 -82 -106 -104 -135 -22 -28 -123
-159 -225 -289 -111 -144 -186 -249 -187 -265 -2 -14 -10 -73 -18 -131 -9 -58
-18 -123 -20 -144 -3 -22 -7 -51 -10 -65 -2 -14 -6 -48 -10 -76 -3 -27 -9 -76
-14 -107 l-8 -58 664 0 c365 0 663 -3 663 -7 0 -5 -5 -37 -10 -73 -5 -36 -16
-117 -25 -180 -8 -63 -17 -128 -20 -145 -2 -16 -7 -50 -10 -75 -3 -25 -8 -63
-11 -85 l-6 -40 335 0 c185 0 338 3 341 5 2 3 9 43 16 90 12 89 17 128 25 170
2 14 7 48 10 75 4 28 13 93 21 145 7 52 14 101 14 108 0 9 38 12 159 12 l158
0 7 53 c4 28 9 66 11 82 7 49 24 186 30 235 3 25 7 56 10 70 8 41 19 143 20
179 l0 34 -148 0 -149 -1 6 62 c4 33 10 86 16 116 5 30 12 78 15 105 8 66 14
108 25 175 10 60 17 110 25 180 3 25 7 56 10 70 3 14 7 42 10 62 2 21 7 53 10
70 5 32 10 68 21 158 3 25 7 56 9 70 3 14 12 77 20 140 9 63 18 126 20 139 2
13 7 45 11 70 3 25 8 57 10 71 2 14 6 45 9 70 3 25 8 56 10 70 6 34 12 77 19
130 3 25 8 54 10 65 2 11 7 47 11 80 4 32 8 66 10 75 1 8 6 40 9 70 l6 56
-324 0 -325 -1 -58 -75z m-166 -1247 c-3 -5 -8 -33 -11 -64 -4 -31 -8 -66 -10
-76 -3 -11 -7 -44 -11 -74 -3 -30 -8 -65 -10 -79 -2 -14 -6 -45 -10 -70 -8
-65 -26 -191 -30 -216 -2 -12 -7 -48 -11 -80 -3 -33 -8 -66 -10 -74 -1 -8 -3
-22 -3 -31 -1 -14 -29 -16 -251 -16 -186 -1 -248 2 -242 11 5 6 38 49 73 96
36 47 130 171 209 275 126 167 176 231 286 373 22 28 43 45 31 25z"/>
</g>
</svg>
