<?xml version="1.0" standalone="no"?>
<!DOCTYPE svg PUBLIC "-//W3C//DTD SVG 20010904//EN"
 "http://www.w3.org/TR/2001/REC-SVG-20010904/DTD/svg10.dtd">
<svg version="1.0" xmlns="http://www.w3.org/2000/svg"
 width="700.000000pt" height="700.000000pt" viewBox="0 0 700.000000 700.000000"
 preserveAspectRatio="xMidYMid meet">
<metadata>
Created by potrace 1.14, written by Peter Selinger 2001-2017
</metadata>
<g transform="translate(0.000000,700.000000) scale(0.100000,-0.100000)"
fill="#000000" stroke="none">
<path d="M3584 6954 c-9 -21 -34 -82 -55 -134 -22 -52 -46 -108 -53 -125 -8
-16 -58 -136 -111 -265 -54 -129 -98 -236 -100 -238 -4 -4 -83 141 -228 418
-36 69 -77 146 -91 170 l-26 45 0 -35 c-1 -19 -3 -64 -5 -100 -4 -75 -18 -335
-30 -590 -3 -63 -7 -149 -10 -190 -2 -41 -7 -133 -11 -204 -3 -71 -7 -141 -9
-154 -3 -27 -17 -29 155 16 63 17 151 35 195 40 77 10 423 9 475 -1 14 -3 50
-8 80 -12 30 -3 110 -17 177 -30 67 -14 128 -25 135 -25 10 0 13 32 11 143 -1
78 -3 310 -5 515 l-3 373 -40 -43 c-22 -24 -71 -79 -110 -122 -73 -83 -115
-130 -184 -206 -38 -43 -41 -44 -41 -20 -1 14 -3 32 -5 40 -1 8 -6 47 -9 85
-4 39 -9 79 -11 90 -2 11 -7 47 -10 80 -4 33 -8 74 -10 90 -8 58 -15 121 -20
165 -3 25 -8 59 -10 75 -2 17 -7 64 -11 105 -3 41 -8 77 -10 79 -2 2 -11 -13
-20 -35z m-40 -479 c3 -22 8 -65 11 -95 3 -30 8 -68 10 -85 2 -16 7 -51 10
-77 3 -27 8 -69 11 -95 4 -27 7 -59 9 -73 11 -109 19 -160 25 -160 7 0 44 38
115 121 25 28 76 85 215 242 5 5 9 -87 10 -205 0 -117 2 -247 2 -288 2 -83 7
-79 -72 -64 -148 27 -268 37 -440 38 -217 1 -285 -4 -415 -34 -22 -5 -43 -10
-47 -10 -3 0 -5 21 -3 48 2 26 6 101 10 167 21 411 24 467 28 471 1 2 24 -38
50 -89 26 -51 75 -144 108 -207 33 -63 68 -128 76 -144 18 -34 20 -32 58 63
13 31 63 153 112 271 50 118 93 224 97 234 9 25 13 19 20 -29z"/>
<path d="M2170 5920 c-12 -12 -19 -24 -16 -28 2 -4 9 -26 15 -49 14 -51 34
-73 61 -66 36 10 42 37 20 94 -27 72 -46 83 -80 49z"/>
<path d="M4857 5845 c-19 -19 -30 -68 -22 -95 5 -17 14 -20 38 -18 27 3 34 9
45 43 22 66 -19 113 -61 70z"/>
<path d="M1320 5525 c-17 -20 -1 -54 64 -142 50 -68 74 -78 100 -42 14 20 12
42 -6 64 -5 6 -29 38 -53 73 -47 65 -78 79 -105 47z"/>
<path d="M5518 5488 c-9 -7 -42 -53 -73 -102 -50 -78 -56 -91 -46 -112 10 -24
34 -30 65 -18 9 3 16 10 16 16 0 5 23 44 52 86 54 80 61 108 32 129 -22 16
-26 16 -46 1z"/>
<path d="M3287 5214 c-1 -1 -40 -4 -87 -8 -47 -4 -101 -9 -120 -11 -19 -3 -57
-7 -85 -10 -27 -3 -59 -8 -70 -10 -11 -3 -33 -7 -50 -10 -178 -33 -310 -69
-490 -132 -105 -37 -132 -49 -282 -119 -244 -114 -501 -287 -697 -471 -62 -58
-72 -63 -102 -59 -139 23 -466 203 -768 425 -39 28 -72 49 -74 47 -4 -4 179
-562 197 -601 5 -11 22 -54 37 -95 38 -106 86 -221 137 -331 l44 -94 -43 -101
c-37 -87 -86 -234 -100 -299 -2 -11 -6 -31 -10 -45 -3 -14 -7 -38 -10 -55 -3
-16 -7 -36 -10 -44 -26 -77 -26 -564 1 -701 3 -13 7 -42 11 -65 12 -85 74
-306 113 -404 224 -566 694 -944 1397 -1126 298 -77 573 -107 991 -109 l251
-1 27 -25 c43 -40 101 -134 129 -207 30 -79 46 -139 85 -319 45 -204 78 -250
160 -226 86 26 162 155 231 391 12 41 23 81 25 90 2 9 8 34 13 56 6 22 13 54
16 70 17 96 15 99 86 -110 118 -351 181 -464 275 -495 18 -6 44 -9 58 -8 82
11 180 148 237 333 26 83 54 214 60 275 0 8 16 -25 34 -75 81 -222 154 -318
249 -330 121 -16 253 214 311 540 14 79 15 323 2 355 -5 12 18 23 106 53 335
114 611 303 753 518 73 108 141 280 160 399 3 19 10 60 15 90 9 55 7 437 -3
475 -2 11 -8 47 -12 80 -6 54 -15 105 -30 175 -3 14 -8 39 -10 55 -8 44 -61
241 -84 310 -17 53 -32 93 -73 200 -6 16 -38 83 -70 148 l-58 119 49 141 c44
128 100 347 116 452 3 22 10 67 15 100 5 33 12 83 15 110 4 28 8 57 10 65 2 8
7 47 11 85 3 39 8 78 10 88 2 10 6 48 9 84 l7 65 -94 -79 c-257 -218 -440
-336 -615 -398 l-67 -23 -49 41 c-27 23 -79 66 -116 95 -36 29 -75 60 -85 69
-82 67 -353 229 -491 293 -194 90 -499 194 -655 223 -14 3 -72 14 -130 25 -58
12 -131 24 -163 27 -32 4 -67 8 -78 10 -60 12 -560 29 -572 19z m2303 -2154
c229 -81 392 -292 456 -592 3 -13 7 -70 9 -126 19 -500 -330 -890 -730 -815
-135 25 -292 128 -371 245 -16 24 -32 45 -36 48 -13 10 -76 155 -92 211 -21
71 -25 92 -32 154 -10 99 -10 132 -3 211 33 325 220 587 478 668 99 31 225 30
321 -4z m-2341 -35 c190 -26 379 -122 521 -264 470 -470 274 -1251 -367 -1467
-440 -148 -936 58 -1132 470 -105 221 -113 481 -22 706 157 386 569 615 1000
555z m1256 -1125 c48 -18 111 -99 177 -227 118 -229 132 -353 45 -407 -26 -16
-74 16 -144 99 -68 79 -105 105 -131 89 -9 -6 -27 -42 -39 -80 -35 -105 -92
-146 -156 -112 -52 27 -77 102 -71 211 2 39 5 81 8 92 37 180 99 297 181 344
21 11 88 7 130 -9z"/>
<path d="M5385 2954 c11 -4 53 -21 93 -40 130 -61 239 -195 297 -365 14 -41
25 -75 25 -77 -1 -1 2 -23 6 -48 33 -219 -39 -471 -174 -610 -70 -73 -183
-144 -228 -144 -8 0 -14 -5 -14 -11 0 -17 122 -8 192 16 193 65 348 271 383
510 7 47 7 186 1 232 -22 156 -91 299 -191 398 -59 58 -77 71 -151 106 -57 26
-81 31 -163 35 -53 2 -87 1 -76 -2z"/>
<path d="M3095 2911 c-23 -3 -13 -7 41 -16 222 -39 443 -205 547 -410 99 -197
106 -428 19 -630 -57 -133 -183 -277 -307 -352 -68 -42 -197 -91 -260 -100
-73 -10 -69 -20 6 -17 183 8 319 51 458 147 140 96 277 295 306 442 23 121 25
195 9 290 -24 138 -68 236 -155 348 -129 165 -363 288 -563 296 -33 1 -62 3
-65 4 -3 2 -19 1 -36 -2z"/>
</g>
</svg>
